<svg width="205" height="41" viewBox="0 0 205 41" fill="none" xmlns="http://www.w3.org/2000/svg">
<path d="M60.0318 34.4796C60.0318 35.4764 59.5631 35.9749 58.6251 35.9749H55.1095C54.1723 35.9749 53.7032 35.4764 53.7032 34.4796V21.7773H49.4844V34.4796C49.4844 36.2234 49.8558 37.4896 50.5977 38.2775C51.3396 39.0666 52.5315 39.4606 54.1723 39.4606H59.5631C61.2038 39.4606 62.3953 39.0666 63.1375 38.2775C63.8802 37.4896 64.2512 36.2234 64.2512 34.4796V21.7773H60.0318V34.4796Z" fill="#B3CE52"/>
<path d="M77.3752 28.9999C77.3752 29.9957 76.9061 30.4939 75.9682 30.4939H71.2813V25.264H75.9682C76.9061 25.264 77.3752 25.7617 77.3752 26.7585V28.9999ZM80.9494 32.213C81.3797 31.449 81.5944 30.378 81.5944 28.9999V26.7585C81.5944 25.0142 81.2229 23.7485 80.4816 22.9592C79.7381 22.1713 78.5479 21.7773 76.9061 21.7773H67.0625V39.2121H71.2813V33.981H74.5621L77.2574 39.2121H81.8287L78.8991 33.7325C79.837 33.4836 80.5206 32.9774 80.9494 32.213Z" fill="#B3CE52"/>
<path d="M88.9778 32.8602L90.8527 27.007L92.7275 32.8602H88.9778ZM88.5087 21.7773L82.2969 39.2121H86.8682L87.923 36.0985H93.7822L94.837 39.2121H99.4083L93.1966 21.7773H88.5087Z" fill="#B3CE52"/>
<path d="M104.797 21.7773H100.578V39.2121H113.353V35.7251H104.797V21.7773Z" fill="#B3CE52"/>
<path d="M112.844 32.2389H122.454V28.752H112.844V32.2389Z" fill="#B3CE52"/>
<path d="M135.148 28.7511H130.93C129.993 28.7511 129.523 28.2526 129.523 27.257V26.7585C129.523 25.7617 129.993 25.264 130.93 25.264H138.219V21.7773H129.993C128.352 21.7773 127.159 22.1713 126.418 22.9592C125.676 23.7485 125.305 25.0142 125.305 26.7585V27.5055C125.305 29.2484 125.676 30.5155 126.418 31.3037C127.159 32.0926 128.352 32.4869 129.993 32.4869H135.383V34.6008C135.383 34.961 135.278 35.2472 135.067 35.4582C134.856 35.6694 134.571 35.775 134.211 35.775C133.523 35.775 132.688 35.775 131.703 35.775C130.718 35.775 129.766 35.775 128.843 35.775C127.765 35.775 126.656 35.775 125.516 35.775V38.9633C126.64 39.179 127.773 39.2868 128.914 39.2868C129.399 39.2868 129.91 39.2868 130.449 39.2868C130.988 39.2868 131.527 39.2868 132.067 39.2868C132.606 39.2868 133.137 39.2868 133.66 39.2868C134.184 39.2868 134.68 39.2868 135.148 39.2868C136.68 39.2868 137.806 38.9112 138.524 38.1593C139.243 37.4088 139.603 36.2327 139.603 34.6317V33.4065C139.603 31.8055 139.243 30.6291 138.524 29.8776C137.806 29.1271 136.68 28.7511 135.148 28.7511Z" fill="#B3CE52"/>
<path d="M140.539 25.264H145.46V39.2121H149.68V25.264H154.603V21.7773H140.539V25.264Z" fill="#B3CE52"/>
<path d="M166.555 28.9999C166.555 29.9957 166.087 30.4939 165.149 30.4939H160.461V25.264H165.149C166.087 25.264 166.555 25.7617 166.555 26.7585V28.9999ZM170.13 32.213C170.56 31.449 170.775 30.378 170.775 28.9999V26.7585C170.775 25.0142 170.404 23.7485 169.662 22.9592C168.919 22.1713 167.728 21.7773 166.087 21.7773H156.242V39.2121H160.461V33.981H163.743L166.438 39.2121H171.01L168.08 33.7325C169.017 33.4836 169.7 32.9774 170.13 32.213Z" fill="#B3CE52"/>
<path d="M183.672 34.4811C183.672 35.4779 183.203 35.9764 182.265 35.9764H178.281C177.344 35.9764 176.875 35.4779 176.875 34.4811V26.5111C176.875 25.5144 177.344 25.0158 178.281 25.0158H182.265C183.203 25.0158 183.672 25.5144 183.672 26.5111V34.4811ZM183.203 21.5288H177.344C175.704 21.5288 174.511 21.9241 173.77 22.712C173.027 23.5011 172.656 24.7674 172.656 26.5111V34.4811C172.656 36.2249 173.027 37.4911 173.77 38.279C174.511 39.0681 175.704 39.4621 177.344 39.4621H183.203C184.845 39.4621 186.035 39.0681 186.779 38.279C187.52 37.4911 187.892 36.2249 187.892 34.4811V26.5111C187.892 24.7674 187.52 23.5011 186.779 22.712C186.035 21.9241 184.845 21.5288 183.203 21.5288Z" fill="#B3CE52"/>
<path d="M200.547 21.7773L196.68 30.2454L192.812 21.7773H188.359L194.57 34.6044V39.2121H198.789V34.6044L205.001 21.7773H200.547Z" fill="#B3CE52"/>
<path d="M51.0803 14.9929C50.7383 14.802 50.4698 14.5362 50.2761 14.2001C50.0819 13.8628 49.9844 13.4836 49.9844 13.0623C49.9844 12.64 50.0819 12.2619 50.2761 11.9236C50.4698 11.5876 50.7389 11.323 51.0829 11.1311C51.4272 10.9381 51.8113 10.8428 52.236 10.8428C52.568 10.8428 52.8711 10.8995 53.1467 11.0131C53.4221 11.1264 53.6565 11.2948 53.8509 11.5184L53.4562 11.9088C53.1367 11.566 52.7382 11.3944 52.2603 11.3944C51.9451 11.3944 51.6597 11.4672 51.4049 11.6114C51.15 11.7565 50.9509 11.9555 50.8073 12.2098C50.6636 12.4641 50.5917 12.7479 50.5917 13.0623C50.5917 13.3759 50.6636 13.6606 50.8073 13.9153C50.9509 14.1696 51.15 14.3682 51.4049 14.5124C51.6597 14.6565 51.9451 14.7305 52.2603 14.7305C52.7338 14.7305 53.1323 14.5555 53.4562 14.2082L53.8509 14.5998C53.6565 14.8222 53.4202 14.9929 53.1436 15.1084C52.8661 15.2233 52.5617 15.2822 52.2303 15.2822C51.8053 15.2822 51.4219 15.1857 51.0803 14.9929Z" fill="#B3CE52"/>
<path d="M57.6108 11.4311H56.154V15.2315H55.5592V11.4311H54.1094V10.8906H57.6108V11.4311Z" fill="#B3CE52"/>
<path d="M60.8691 13.1262C61.0714 12.9582 61.1725 12.7174 61.1725 12.4044C61.1725 12.0899 61.0714 11.8491 60.8691 11.682C60.6667 11.514 60.3744 11.4311 59.9894 11.4311H58.9576V13.3773H59.9894C60.3744 13.3773 60.6667 13.2933 60.8691 13.1262ZM61.3069 11.294C61.6227 11.5631 61.7792 11.9331 61.7792 12.4044C61.7792 12.8755 61.6227 13.2457 61.3069 13.5135C60.9903 13.7826 60.5578 13.9167 60.0074 13.9167H58.9576V15.2315H58.3516V10.8906H60.0074C60.5578 10.8906 60.9903 11.0258 61.3069 11.294Z" fill="#B3CE52"/>
<path d="M65.4401 14.5124C65.689 14.3682 65.8856 14.1696 66.029 13.9153C66.1724 13.6606 66.2448 13.3759 66.2448 13.0623C66.2448 12.7479 66.1724 12.4641 66.029 12.2098C65.8856 11.9555 65.689 11.7565 65.4401 11.6114C65.191 11.4672 64.9109 11.3944 64.5999 11.3944C64.2887 11.3944 64.0051 11.4672 63.7531 11.6114C63.5008 11.7565 63.3016 11.9555 63.1583 12.2098C63.0149 12.4641 62.9437 12.7479 62.9437 13.0623C62.9437 13.3759 63.0149 13.6606 63.1583 13.9153C63.3016 14.1696 63.5008 14.3682 63.7531 14.5124C64.0051 14.6565 64.2887 14.7305 64.5999 14.7305C64.9109 14.7305 65.191 14.6565 65.4401 14.5124ZM63.4406 14.9929C63.0963 14.802 62.8259 14.5351 62.6303 14.1968C62.4349 13.8583 62.3359 13.4791 62.3359 13.0623C62.3359 12.6445 62.4349 12.2664 62.6303 11.9272C62.8259 11.5885 63.0963 11.323 63.4406 11.1311C63.7839 10.9381 64.1708 10.8428 64.5999 10.8428C65.0243 10.8428 65.4089 10.9381 65.7524 11.1311C66.0971 11.323 66.3658 11.5876 66.5593 11.9236C66.7539 12.2619 66.8503 12.64 66.8503 13.0623C66.8503 13.4836 66.7539 13.8628 66.5593 14.2001C66.3658 14.5362 66.0971 14.802 65.7524 14.9929C65.4089 15.1857 65.0243 15.2822 64.5999 15.2822C64.1708 15.2822 63.7839 15.1857 63.4406 14.9929Z" fill="#B3CE52"/>
<path d="M67.8281 10.8906H68.4283V14.2393L70.941 10.8906H71.499V15.2315H70.9042V11.89L68.3857 15.2315H67.8281V10.8906Z" fill="#B3CE52"/>
<path d="M76.7581 15.2315L76.7528 12.0693L75.2178 14.7047H74.9378L73.4029 12.0886V15.2315H72.8203V10.8906H73.3172L75.0899 13.9415L76.8372 10.8906H77.335L77.3406 15.2315H76.7581Z" fill="#B3CE52"/>
<path d="M82.9613 13.3548C83.11 13.5389 83.1855 13.7591 83.1855 14.0155C83.1855 14.2711 83.1056 14.4957 82.9455 14.6879C82.7854 14.8798 82.5731 15.0261 82.3087 15.1283C82.0432 15.2292 81.7553 15.2804 81.4439 15.2804C81.1608 15.2804 80.8794 15.2363 80.6007 15.1497C80.3205 15.0625 80.066 14.9331 79.8359 14.7594L80.0471 14.3007C80.2335 14.4494 80.4415 14.5608 80.6728 14.6345C80.9039 14.7095 81.1362 14.7468 81.3705 14.7468C81.7108 14.7468 81.9965 14.6731 82.2265 14.5267C82.4565 14.3789 82.5721 14.1781 82.5721 13.9213C82.5721 13.7034 82.4855 13.5353 82.3119 13.4163C82.1378 13.2991 81.8929 13.2402 81.5775 13.2402H80.6305V12.7372H81.5341C81.8063 12.7372 82.0177 12.6804 82.1686 12.5678C82.3211 12.4542 82.3966 12.2955 82.3966 12.0934C82.3966 11.8652 82.2978 11.6855 82.0986 11.554C81.9008 11.421 81.6497 11.3554 81.3472 11.3554C81.1484 11.3554 80.9462 11.3847 80.7427 11.4417C80.5382 11.5006 80.3448 11.5868 80.1637 11.7027L79.9693 11.1941C80.1838 11.0702 80.4103 10.9772 80.6494 10.9147C80.8873 10.8532 81.126 10.8228 81.364 10.8228C81.6643 10.8228 81.9386 10.8693 82.1909 10.9646C82.4411 11.0599 82.6399 11.1973 82.7877 11.3802C82.9355 11.5621 83.0101 11.7755 83.0101 12.0184C83.0101 12.2376 82.9499 12.4304 82.8298 12.5952C82.7111 12.761 82.5467 12.8848 82.3353 12.9666C82.6021 13.0412 82.811 13.171 82.9613 13.3548Z" fill="#B3CE52"/>
<path d="M86.7461 13.6499L85.8301 11.5231L84.9131 13.6499H86.7461ZM86.9593 14.1459H84.7011L84.2341 15.2315H83.6094L85.5321 10.8906H86.1335L88.0628 15.2315H87.4262L86.9593 14.1459Z" fill="#B3CE52"/>
<path d="M91.5756 11.4311H89.3914L89.397 15.2315H88.7969V10.8906H91.5809L91.5756 11.4311Z" fill="#B3CE52"/>
<path d="M95.0576 14.5124C95.3065 14.3682 95.5021 14.1696 95.6464 13.9153C95.7888 13.6606 95.8622 13.3759 95.8622 13.0623C95.8622 12.7479 95.7888 12.4641 95.6464 12.2098C95.5021 11.9555 95.3065 11.7565 95.0576 11.6114C94.8084 11.4672 94.5283 11.3944 94.2161 11.3944C93.9048 11.3944 93.6226 11.4672 93.3703 11.6114C93.117 11.7565 92.919 11.9555 92.7758 12.2098C92.6324 12.4641 92.5602 12.7479 92.5602 13.0623C92.5602 13.3759 92.6324 13.6606 92.7758 13.9153C92.919 14.1696 93.117 14.3682 93.3703 14.5124C93.6226 14.6565 93.9048 14.7305 94.2161 14.7305C94.5283 14.7305 94.8084 14.6565 95.0576 14.5124ZM93.058 14.9929C92.7133 14.802 92.4434 14.5351 92.2477 14.1968C92.0521 13.8583 91.9531 13.4791 91.9531 13.0623C91.9531 12.6445 92.0521 12.2664 92.2477 11.9272C92.4434 11.5885 92.7133 11.323 93.058 11.1311C93.4014 10.9381 93.787 10.8428 94.2161 10.8428C94.6417 10.8428 95.0251 10.9381 95.3698 11.1311C95.7133 11.323 95.9823 11.5876 96.1767 11.9236C96.3711 12.2619 96.4678 12.64 96.4678 13.0623C96.4678 13.4836 96.3711 13.8628 96.1767 14.2001C95.9823 14.5362 95.7133 14.802 95.3698 14.9929C95.0251 15.1857 94.6417 15.2822 94.2161 15.2822C93.787 15.2822 93.4014 15.1857 93.058 14.9929Z" fill="#B3CE52"/>
<path d="M99.9716 13.1262C100.174 12.9582 100.275 12.7174 100.275 12.4044C100.275 12.0899 100.174 11.8491 99.9716 11.682C99.7693 11.514 99.4761 11.4311 99.0926 11.4311H98.0602V13.3773H99.0926C99.4761 13.3773 99.7693 13.2933 99.9716 13.1262ZM100.41 11.294C100.724 11.5631 100.882 11.9331 100.882 12.4044C100.882 12.8755 100.724 13.2457 100.41 13.5135C100.093 13.7826 99.6607 13.9167 99.1093 13.9167H98.0602V15.2315H97.4531V10.8906H99.1093C99.6607 10.8906 100.093 11.0258 100.41 11.294Z" fill="#B3CE52"/>
<path d="M104.534 14.5124C104.783 14.3682 104.978 14.1696 105.123 13.9153C105.265 13.6606 105.338 13.3759 105.338 13.0623C105.338 12.7479 105.265 12.4641 105.123 12.2098C104.978 11.9555 104.783 11.7565 104.534 11.6114C104.285 11.4672 104.005 11.3944 103.692 11.3944C103.381 11.3944 103.099 11.4672 102.847 11.6114C102.593 11.7565 102.395 11.9555 102.252 12.2098C102.109 12.4641 102.037 12.7479 102.037 13.0623C102.037 13.3759 102.109 13.6606 102.252 13.9153C102.395 14.1696 102.593 14.3682 102.847 14.5124C103.099 14.6565 103.381 14.7305 103.692 14.7305C104.005 14.7305 104.285 14.6565 104.534 14.5124ZM102.534 14.9929C102.19 14.802 101.92 14.5351 101.724 14.1968C101.529 13.8583 101.43 13.4791 101.43 13.0623C101.43 12.6445 101.529 12.2664 101.724 11.9272C101.92 11.5885 102.19 11.323 102.534 11.1311C102.878 10.9381 103.264 10.8428 103.692 10.8428C104.118 10.8428 104.502 10.9381 104.846 11.1311C105.189 11.323 105.458 11.5876 105.653 11.9236C105.848 12.2619 105.944 12.64 105.944 13.0623C105.944 13.4836 105.848 13.8628 105.653 14.2001C105.458 14.5362 105.189 14.802 104.846 14.9929C104.502 15.1857 104.118 15.2822 103.692 15.2822C103.264 15.2822 102.878 15.1857 102.534 14.9929Z" fill="#B3CE52"/>
<path d="M107.712 13.861C107.637 14.2618 107.517 14.5389 107.352 14.6911H109.748V11.4311H107.885L107.854 12.3429C107.834 12.9537 107.787 13.4604 107.712 13.861ZM110.974 14.6911V16.1797H110.409V15.2315H106.914L106.908 16.1797H106.344L106.35 14.6911H106.556C106.824 14.6751 107.012 14.4594 107.121 14.0439C107.229 13.6283 107.297 13.0422 107.322 12.2862L107.363 10.8906H110.349V14.6911H110.974Z" fill="#B3CE52"/>
<path d="M115.458 10.8906V15.2315H114.851V13.2969H112.412V15.2315H111.805V10.8906H112.412V12.7574H114.851V10.8906H115.458Z" fill="#B3CE52"/>
<path d="M120.882 10.8906H121.484V15.2315H120.882V10.8906ZM119.32 14.4967C119.509 14.3332 119.603 14.0973 119.603 13.7873C119.603 13.1909 119.238 12.8935 118.51 12.8935H117.381V14.7411H118.51C118.862 14.7411 119.133 14.6592 119.32 14.4967ZM119.806 12.7517C120.074 12.982 120.209 13.3239 120.209 13.7736C120.209 14.2492 120.064 14.6104 119.775 14.8591C119.485 15.1076 119.073 15.2315 118.535 15.2315H116.781V10.8906H117.381V12.4044H118.644C119.149 12.4044 119.537 12.519 119.806 12.7517Z" fill="#B3CE52"/>
<path d="M125.895 14.6911V15.2315H122.812V10.8906H125.81V11.4311H123.418V12.7632H125.549V13.2911H123.418V14.6911H125.895Z" fill="#B3CE52"/>
<path d="M129.267 13.861C129.191 14.2618 129.071 14.5389 128.905 14.6911H131.303V11.4311H129.44L129.409 12.3429C129.389 12.9537 129.341 13.4604 129.267 13.861ZM132.527 14.6911V16.1797H131.964V15.2315H128.469L128.462 16.1797H127.898L127.904 14.6911H128.11C128.378 14.6751 128.565 14.4594 128.674 14.0439C128.783 13.6283 128.851 13.0422 128.875 12.2862L128.918 10.8906H131.903V14.6911H132.527Z" fill="#B3CE52"/>
<path d="M136.112 14.5124C136.361 14.3682 136.557 14.1696 136.7 13.9153C136.844 13.6606 136.916 13.3759 136.916 13.0623C136.916 12.7479 136.844 12.4641 136.7 12.2098C136.557 11.9555 136.361 11.7565 136.112 11.6114C135.863 11.4672 135.583 11.3944 135.271 11.3944C134.96 11.3944 134.677 11.4672 134.425 11.6114C134.172 11.7565 133.973 11.9555 133.83 12.2098C133.686 12.4641 133.615 12.7479 133.615 13.0623C133.615 13.3759 133.686 13.6606 133.83 13.9153C133.973 14.1696 134.172 14.3682 134.425 14.5124C134.677 14.6565 134.96 14.7305 135.271 14.7305C135.583 14.7305 135.863 14.6565 136.112 14.5124ZM134.112 14.9929C133.768 14.802 133.498 14.5351 133.302 14.1968C133.106 13.8583 133.008 13.4791 133.008 13.0623C133.008 12.6445 133.106 12.2664 133.302 11.9272C133.498 11.5885 133.768 11.323 134.112 11.1311C134.456 10.9381 134.842 10.8428 135.271 10.8428C135.697 10.8428 136.08 10.9381 136.423 11.1311C136.768 11.323 137.037 11.5876 137.231 11.9236C137.426 12.2619 137.522 12.64 137.522 13.0623C137.522 13.4836 137.426 13.8628 137.231 14.2001C137.037 14.5362 136.768 14.802 136.423 14.9929C136.08 15.1857 135.697 15.2822 135.271 15.2822C134.842 15.2822 134.456 15.1857 134.112 14.9929Z" fill="#B3CE52"/>
<path d="M142.438 15.2315L142.432 12.0693L140.898 14.7047H140.617L139.082 12.0886V15.2315H138.5V10.8906H138.997L140.77 13.9415L142.517 10.8906H143.015L143.02 15.2315H142.438Z" fill="#B3CE52"/>
<path d="M146.894 13.6499L145.979 11.5231L145.062 13.6499H146.894ZM147.108 14.1459H144.849L144.383 15.2315H143.758L145.681 10.8906H146.282L148.211 15.2315H147.575L147.108 14.1459Z" fill="#B3CE52"/>
<path d="M154.237 10.8906V15.2315H153.641V11.4311H151.178V15.2315H150.578V10.8906H154.237Z" fill="#B3CE52"/>
<path d="M158.315 14.5124C158.564 14.3682 158.76 14.1696 158.903 13.9153C159.046 13.6606 159.119 13.3759 159.119 13.0623C159.119 12.7479 159.046 12.4641 158.903 12.2098C158.76 11.9555 158.564 11.7565 158.315 11.6114C158.066 11.4672 157.786 11.3944 157.474 11.3944C157.163 11.3944 156.88 11.4672 156.628 11.6114C156.375 11.7565 156.176 11.9555 156.033 12.2098C155.889 12.4641 155.818 12.7479 155.818 13.0623C155.818 13.3759 155.889 13.6606 156.033 13.9153C156.176 14.1696 156.375 14.3682 156.628 14.5124C156.88 14.6565 157.163 14.7305 157.474 14.7305C157.786 14.7305 158.066 14.6565 158.315 14.5124ZM156.314 14.9929C155.971 14.802 155.701 14.5351 155.504 14.1968C155.309 13.8583 155.211 13.4791 155.211 13.0623C155.211 12.6445 155.309 12.2664 155.504 11.9272C155.701 11.5885 155.971 11.323 156.314 11.1311C156.659 10.9381 157.045 10.8428 157.474 10.8428C157.9 10.8428 158.283 10.9381 158.626 11.1311C158.971 11.323 159.24 11.5876 159.434 11.9236C159.629 12.2619 159.725 12.64 159.725 13.0623C159.725 13.4836 159.629 13.8628 159.434 14.2001C159.24 14.5362 158.971 14.802 158.626 14.9929C158.283 15.1857 157.9 15.2822 157.474 15.2822C157.045 15.2822 156.659 15.1857 156.314 14.9929Z" fill="#B3CE52"/>
<path d="M161.493 13.861C161.418 14.2618 161.298 14.5389 161.132 14.6911H163.529V11.4311H161.667L161.636 12.3429C161.615 12.9537 161.568 13.4604 161.493 13.861ZM164.754 14.6911V16.1797H164.189V15.2315H160.695L160.689 16.1797H160.125L160.131 14.6911H160.336C160.604 14.6751 160.792 14.4594 160.901 14.0439C161.01 13.6283 161.078 13.0422 161.102 12.2862L161.144 10.8906H164.13V14.6911H164.754Z" fill="#B3CE52"/>
<path d="M168.699 13.3216H167.813V15.2315H167.219V10.8906H167.813V12.7767H168.712L170.046 10.8906H170.696L169.179 12.9923L170.77 15.2315H170.077L168.699 13.3216Z" fill="#B3CE52"/>
<path d="M175.007 10.8906V15.2315H174.412V11.4311H172.531L172.488 12.7017C172.468 13.3014 172.42 13.7873 172.346 14.1585C172.271 14.5309 172.152 14.8115 171.991 14.9988C171.829 15.1862 171.61 15.2814 171.335 15.2814C171.21 15.2814 171.082 15.2634 170.953 15.2315L170.995 14.6796C171.06 14.6957 171.124 14.7047 171.19 14.7047C171.363 14.7047 171.503 14.6331 171.608 14.49C171.713 14.348 171.792 14.1337 171.846 13.8485C171.898 13.5636 171.932 13.1864 171.948 12.721L172.015 10.8906H175.007Z" fill="#B3CE52"/>
<path d="M180.64 14.5091C180.877 14.3671 181.063 14.1696 181.198 13.9175C181.334 13.6655 181.402 13.3804 181.402 13.0623C181.402 12.7434 181.334 12.4585 181.198 12.2062C181.063 11.9542 180.877 11.7565 180.64 11.6146C180.404 11.4717 180.139 11.4002 179.848 11.4002C179.56 11.4002 179.3 11.4717 179.066 11.6146C178.831 11.7565 178.646 11.9542 178.51 12.2062C178.374 12.4585 178.307 12.7434 178.307 13.0623C178.307 13.3804 178.374 13.6655 178.51 13.9175C178.646 14.1696 178.831 14.3671 179.066 14.5091C179.3 14.652 179.56 14.7234 179.848 14.7234C180.139 14.7234 180.404 14.652 180.64 14.5091ZM180.953 11.1311C181.28 11.323 181.538 11.5876 181.726 11.9236C181.915 12.2619 182.009 12.64 182.009 13.0623C182.009 13.4836 181.915 13.8628 181.726 14.2001C181.538 14.5362 181.28 14.802 180.953 14.9929C180.625 15.1857 180.256 15.2822 179.848 15.2822C179.467 15.2822 179.121 15.1973 178.81 15.0279C178.499 14.8577 178.246 14.6249 178.052 14.3273C177.857 14.0286 177.742 13.6903 177.705 13.3099H176.93V15.2323H176.328V10.8914H176.93V12.7524H177.712C177.756 12.3846 177.878 12.0553 178.073 11.7659C178.269 11.4775 178.521 11.2502 178.828 11.0868C179.135 10.9233 179.476 10.8428 179.848 10.8428C180.256 10.8428 180.625 10.9381 180.953 11.1311Z" fill="#B3CE52"/>
<path d="M186.141 10.8906V15.2315H185.541V13.5135C185.092 13.6918 184.677 13.7802 184.297 13.7802C183.778 13.7802 183.376 13.6521 183.091 13.3953C182.806 13.1401 182.664 12.7731 182.664 12.2988V10.8906H183.259V12.2305C183.259 12.5531 183.354 12.8005 183.547 12.9753C183.739 13.1478 184.011 13.2354 184.363 13.2354C184.756 13.2354 185.147 13.1446 185.541 12.9618V10.8906H186.141Z" fill="#B3CE52"/>
<path d="M38.5627 11.5579L21.0189 0H20.6286L1.97411 11.6384C0.74281 12.4572 0 13.8547 0 15.3558V32.2489H6.24741V15.6806L20.824 6.43806L35.1085 15.8473V33.6387L35.122 33.6068V34.1167C35.122 35.4942 34.475 36.1833 33.1795 36.1833H22.6705C21.3749 36.1833 20.7276 35.4942 20.7276 34.1167V17.0761H14.8991V34.1167C14.8991 36.5261 15.4118 38.276 16.4369 39.365C17.4623 40.4548 19.1085 41 21.3749 41H34.475C36.7423 41 38.3878 40.4548 39.4137 39.365C40.4387 38.276 40.952 36.5261 40.952 34.1167V14.8369C40.9554 13.3268 39.8048 12.3754 38.5627 11.5579Z" fill="#B3CE52"/>
</svg>
